<svg width="130" height="130" viewBox="0 0 130 130" fill="none" xmlns="http://www.w3.org/2000/svg">
<g clip-path="url(#clip0_130_18)">
<path d="M73.1243 40.625L75.8327 35.2083L86.666 32.5L92.0827 43.3333L86.666 51.4583L94.791 75.8333L83.9577 81.25V97.5L62.291 108.333L40.6243 97.5V81.25L29.791 75.8333L37.916 51.4583L32.4993 43.3333L37.916 32.5L48.7493 35.2083L51.4577 40.625H73.1243Z" fill="white"/>
<path d="M51.459 73.125H73.1257L62.2923 86.6667L51.459 73.125Z" fill="#B07DFB"/>
<path d="M116.458 18.9585L94.7917 27.0835L102.917 2.7085L67.7083 10.8335L62.2917 21.6668L54.1667 10.8335L21.6667 2.7085L29.7917 27.0835L8.125 18.9585L18.9583 40.6252L8.125 73.1252L40.625 116.459L62.2917 127.292L83.9583 116.459L116.458 73.1252L105.625 40.6252L116.458 18.9585ZM83.9583 81.2502V97.5002L62.2917 108.334L40.625 97.5002V81.2502L29.7917 75.8335L37.9167 51.4585L32.5 43.3335L37.9167 32.5002L48.75 35.2085L51.4583 40.6252H73.125L75.8333 35.2085L86.6667 32.5002L92.0833 43.3335L86.6667 51.4585L94.7917 75.8335L83.9583 81.2502Z" fill="#B07DFB"/>
<path d="M73.1243 40.625L75.8327 35.2083L86.666 32.5L92.0827 43.3333L86.666 51.4583L94.791 75.8333L83.9577 81.25V97.5L62.291 108.333L40.6243 97.5V81.25L29.791 75.8333L37.916 51.4583L32.4993 43.3333L37.916 32.5L48.7493 35.2083L51.4577 40.625H73.1243Z" stroke="#8844EE" stroke-miterlimit="10" stroke-linecap="round" stroke-linejoin="round"/>
<path d="M62.2917 21.6668L67.7083 10.8335L102.917 2.7085L94.7917 27.0835L116.458 18.9585L105.625 40.6252L116.458 73.1252L83.9583 116.459L62.2917 127.292L40.625 116.459L8.125 73.1252L18.9583 40.6252L8.125 18.9585L29.7917 27.0835L21.6667 2.7085L54.1667 10.8335L62.2917 21.6668Z" stroke="#8844EE" stroke-miterlimit="10" stroke-linecap="round" stroke-linejoin="round"/>
<path d="M51.459 56.875V62.2917" stroke="#8844EE" stroke-miterlimit="10" stroke-linecap="round" stroke-linejoin="round"/>
<path d="M73.125 56.875V62.2917" stroke="#8844EE" stroke-miterlimit="10" stroke-linecap="round" stroke-linejoin="round"/>
<path d="M51.459 73.125H73.1257L62.2923 86.6667L51.459 73.125Z" stroke="#8844EE" stroke-miterlimit="10" stroke-linecap="round" stroke-linejoin="round"/>
<path d="M62.291 86.667V94.792" stroke="#8844EE" stroke-miterlimit="10" stroke-linecap="round" stroke-linejoin="round"/>
</g>
<defs>
<clipPath id="clip0_130_18">
<rect width="130" height="130" fill="white"/>
</clipPath>
</defs>
</svg>
