<svg width="194" height="32" viewBox="0 0 194 32" fill="none" xmlns="http://www.w3.org/2000/svg">
<g clip-path="url(#clip0_1_4)">
<path d="M21.423 31.9549C20.2603 31.9864 19.1087 31.722 18.0774 31.1867C17.046 30.6514 16.169 29.863 15.5294 28.8961C13.5161 30.77 10.89 31.8564 8.13531 31.9549C3.19989 31.9549 0.524276 28.4913 1.4282 23.5253C2.11518 19.7918 5.18852 16.0493 6.04725 13.0446C4.38403 12.037 1.91632 11.3353 0.759296 13.3954L0 12.9366C0.605629 10.6785 2.06998 9.17613 4.18516 9.17613C6.30035 9.17613 7.86413 10.4266 9.87988 9.27509H11.4889C10.6301 13.7733 8.46072 17.3718 7.3037 23.6692C6.59864 27.5287 7.90933 29.283 10.1239 29.283C11.7662 29.0771 13.2735 28.2726 14.3543 27.0249C13.4703 24.8254 13.0251 22.4756 13.0436 20.1067C13.0436 14.6369 15.5656 8.87025 19.7959 8.87025C21.9653 8.87025 23.5743 10.3726 23.5743 13.9352C23.5743 17.4977 21.4049 23.0125 18.6389 26.4761C18.7883 27.3008 19.2222 28.0477 19.8658 28.5881C20.5094 29.1284 21.3223 29.4282 22.1642 29.4359C26.1957 29.4359 29.0159 23.4173 29.0159 17.8486C29.0159 12.2799 26.5934 12.5318 26.8013 10.6515C26.8383 10.1788 27.0614 9.73969 27.4219 9.42972C27.7824 9.11974 28.2513 8.96395 28.7267 8.9962C29.9831 8.9962 31.6373 10.5796 31.6373 17.0029C31.6373 25.1896 27.2623 31.9549 21.423 31.9549ZM20.51 11.6951C19.2536 11.6951 18.0423 16.3102 17.8886 21.0783C17.83 22.0978 17.8481 23.1202 17.9429 24.1371C19.8414 21.0102 20.9977 17.4932 21.3235 13.8542C21.3145 12.2349 21.0162 11.6951 20.51 11.6951ZM39.9173 31.748C39.3901 31.8023 38.8574 31.7406 38.3568 31.5673C37.8562 31.3941 37.4001 31.1134 37.0206 30.7451C36.6411 30.3769 36.3476 29.9301 36.1609 29.4365C35.9742 28.9429 35.8987 28.4144 35.94 27.8885C35.94 25.6844 38.8145 14.6999 38.8145 12.8916C38.8145 12.037 38.6156 11.5332 37.8563 11.5332C37.0071 11.6719 36.2179 12.0568 35.5875 12.6397V11.0834C36.8963 9.88002 38.5973 9.18687 40.3783 9.13115C40.9086 9.08373 41.443 9.15203 41.9441 9.33128C42.4452 9.51053 42.9009 9.79643 43.2796 10.169C43.6583 10.5416 43.9507 10.9919 44.1365 11.4886C44.3224 11.9852 44.3971 12.5162 44.3555 13.0446C44.3555 15.2487 41.481 26.1882 41.481 27.9875C41.481 28.8421 41.6799 29.3459 42.4392 29.3459C43.2769 29.2048 44.0608 28.8411 44.708 28.2934V29.7958C43.4042 31.0068 41.7001 31.7012 39.9173 31.748ZM43.4426 -0.000145197C43.8365 -0.0128292 44.2285 0.0601162 44.5913 0.21361C44.954 0.367104 45.2788 0.597457 45.5429 0.888623C45.8071 1.17979 46.0043 1.52477 46.1208 1.89954C46.2373 2.2743 46.2704 2.66984 46.2176 3.05861C46.1217 3.88781 45.7274 4.65442 45.1076 5.21671C44.4878 5.779 43.6844 6.09893 42.846 6.11737C42.452 6.13005 42.06 6.05711 41.6973 5.90361C41.3345 5.75012 41.0097 5.51977 40.7456 5.2286C40.4814 4.93743 40.2842 4.59245 40.1677 4.21769C40.0512 3.84292 40.0182 3.44738 40.0709 3.05861C40.1668 2.22941 40.5611 1.4628 41.1809 0.900514C41.8007 0.338227 42.6041 0.0182908 43.4426 -0.000145197ZM54.6331 27.0339C54.38 28.3923 54.5337 29.3369 55.4918 29.3369C56.3326 29.2057 57.1191 28.8408 57.7607 28.2844L57.8511 29.7958C56.5422 30.9991 54.8412 31.6922 53.0603 31.748C49.9327 31.748 48.7215 29.4899 49.1825 26.683L52.2558 9.27509C53.2772 3.46345 52.9247 2.69876 49.7971 2.69876L49.996 1.29533L59.4239 0.0538329L54.6331 27.0339ZM81.1452 26.9889C80.8921 28.3473 80.9915 29.3459 82.0039 29.3459C82.8462 29.1862 83.6299 28.804 84.2728 28.2394V29.7958C82.9726 31.0126 81.2662 31.7079 79.482 31.748C78.5802 31.8135 77.6865 31.5404 76.977 30.9826C76.2676 30.4247 75.7939 29.6225 75.6493 28.7342C74.8937 29.7303 73.9195 30.5415 72.801 31.1059C71.6825 31.6703 70.4492 31.973 69.1953 31.9909C63.2023 31.9909 60.6804 26.728 61.8374 20.4036C62.9944 14.0791 68.3908 8.91523 74.4923 8.91523C75.9366 8.88537 77.3647 9.22289 78.6413 9.89584L78.795 9.09516C79.9882 2.90567 79.4368 2.69876 76.3092 2.69876L76.4629 1.29533L85.936 0.0538329L81.1452 26.9889ZM74.646 11.1823C71.1659 11.1823 68.8518 15.2936 67.9389 20.3586C66.9807 25.6754 67.5863 29.3549 70.8585 29.3549C73.0732 29.3549 75.5951 26.656 76.3544 22.5357L78.2165 12.0999C77.1428 11.4515 75.9009 11.1324 74.646 11.1823ZM97.0723 31.9999C90.0669 31.9999 88.1506 26.9799 89.0093 22.1668L91.2962 9.27509C92.3538 3.45445 92.0013 2.65378 88.8737 2.65378L89.0726 1.25035L98.5276 0.0538329L96.6113 10.9844C98.0825 9.71124 99.9506 8.98341 101.899 8.92423C108.001 8.92423 110.866 14.0881 109.763 20.4126C108.661 26.737 103.047 31.9999 97.0723 31.9999ZM100.345 11.3083C99.326 11.3292 98.3404 11.6704 97.5285 12.2828C96.7167 12.8952 96.1204 13.7476 95.8249 14.7179L94.4148 22.8146C93.5561 27.6276 95.2735 29.5888 97.4429 29.5888C100.616 29.5888 102.586 26.0803 103.644 20.3136C104.584 15.1497 103.725 11.3353 100.335 11.3353L100.345 11.3083ZM119.318 23.3274C119.318 27.1868 121.18 29.247 124.741 29.247C126.549 29.247 129.18 27.9965 130.843 26.3412L131.548 27.9425C130.354 29.2026 128.917 30.2117 127.324 30.9102C125.732 31.6086 124.014 31.9822 122.274 32.0089C116.986 32.0089 113.406 28.0954 113.406 22.7786C113.406 14.9068 119.96 8.93323 126.26 8.93323C130.093 8.93323 132.253 11.0384 132.253 13.4944C132.208 17.3088 128.574 21.5911 119.318 23.3274ZM125.817 11.2363C122.943 11.2363 120.177 15.4016 119.417 21.3662C125.211 19.9627 127.679 16.0493 127.733 13.5394C127.724 12.1359 127.064 11.2363 125.808 11.2363H125.817ZM152.817 31.748C151.915 31.8135 151.022 31.5404 150.312 30.9826C149.603 30.4247 149.129 29.6225 148.985 28.7342C148.257 29.7297 147.307 30.5424 146.208 31.1078C145.11 31.6732 143.894 31.9756 142.657 31.9909C136.764 31.9909 134.242 26.728 135.426 20.4036C136.61 14.0791 141.916 8.92423 148.036 8.92423C149.334 8.91732 150.619 9.17448 151.814 9.67992H157.563L154.48 26.9889C154.227 28.3473 154.327 29.3459 155.339 29.3459C156.182 29.1862 156.965 28.804 157.608 28.2394V29.7958C156.308 31.0126 154.602 31.7079 152.817 31.748ZM148.18 11.1823C144.799 11.1823 142.431 15.2936 141.527 20.3586C140.569 25.6754 141.229 29.3549 144.239 29.3549C146.553 29.3549 149.03 26.5481 149.735 22.5357L151.597 12.0999C150.583 11.4515 149.393 11.1309 148.189 11.1823H148.18ZM175.198 14.8438C173.833 14.8438 173.481 13.7913 173.083 12.6847C172.949 12.127 172.624 11.6333 172.164 11.2884C171.704 10.9436 171.137 10.7693 170.561 10.7955C169.814 10.7564 169.078 10.9968 168.5 11.4695C167.921 11.9422 167.541 12.6131 167.434 13.3504C167.28 14.7089 168.292 15.8604 170.209 17.5157L172.776 19.6209C173.733 20.3424 174.473 21.3103 174.918 22.4201C175.362 23.53 175.494 24.7396 175.298 25.9183C174.647 29.6788 171.519 31.9909 167.334 31.9909C162.29 31.9909 159.072 29.0311 159.425 27.0249C159.506 26.4971 159.774 26.0153 160.18 25.6659C160.586 25.3165 161.103 25.1221 161.64 25.1177C162.95 25.1177 163.447 26.1162 163.854 27.4207C164.115 28.1698 164.617 28.8122 165.282 29.2482C165.947 29.6841 166.739 29.8893 167.533 29.8317C168.318 29.8685 169.089 29.6122 169.694 29.1129C170.3 28.6137 170.696 27.9076 170.805 27.1328C171.004 25.3336 169.901 24.227 167.831 22.3648L165.309 20.1607C164.42 19.4836 163.728 18.584 163.302 17.5535C162.877 16.523 162.733 15.3986 162.887 14.295C163.339 11.884 165.599 8.89724 170.796 8.89724C174.828 8.89724 177.35 11.1553 177.124 12.9636C177.099 13.4605 176.887 13.9298 176.53 14.2783C176.174 14.6267 175.698 14.8286 175.198 14.8438ZM193.647 11.6951H188.757L186.389 25.0277C185.883 27.7896 186.29 29.0401 187.799 29.0401C188.604 29.0401 189.869 28.5902 191.677 26.737L191.776 28.6892C190.958 29.6545 189.94 30.4325 188.792 30.9697C187.644 31.507 186.392 31.7909 185.123 31.8019C181.698 31.8019 179.98 29.3909 180.794 24.9287L183.162 11.6951H179.338L179.637 9.63494H183.496L184.509 3.67036H190.149L189.092 9.63494H193.982L193.647 11.6951Z" fill="#9F65F5"/>
</g>
<defs>
<clipPath id="clip0_1_4">
<rect width="194" height="32" fill="white"/>
</clipPath>
</defs>
</svg>
